<svg width="256" height="256" viewBox="0 0 256 256" fill="none" xmlns="http://www.w3.org/2000/svg">
  <path d="M128 20L216.33 71V173L128 224L39.67 173V71L128 20Z" fill="#ef4444" />
  <path d="M128 40L199.049 81V163L128 204L56.9515 163V81L128 40Z" fill="#0B0B0E" />
  <path d="M100 80H135C148.807 80 160 91.1929 160 105C160 118.807 148.807 130 135 130H100V176H82V80H100ZM100 115H135C140.523 115 145 110.523 145 105C145 99.4771 140.523 95 135 95H100V115ZM140 176H158L130 135H112L140 176Z" fill="#ef4444" />
</svg>
